<svg xmlns="http://www.w3.org/2000/svg" viewBox="0 0 720 720"><defs><style>.cls-1,.cls-2,.cls-3{fill:none;stroke-linecap:round;stroke-linejoin:round;stroke-width:13px;}.cls-1{stroke:#00d2d4;}.cls-2{stroke:#ff8a5b;}.cls-3{stroke:#fe406c;}</style></defs><g id="Layer_6" data-name="Layer 6"><path class="cls-1" d="M301.4,452.2l63-201.24,63.78,220.49"/><path class="cls-1" d="M333.56,250.07q-28.05,89.6-56.11,179.19"/><line class="cls-1" x1="332.15" y1="353.99" x2="394.03" y2="353.99"/><path class="cls-2" d="M130.45,248.93V470.45"/><path class="cls-2" d="M177.52,377.81l54,93"/><path class="cls-2" d="M263.21,471.15,205.56,378"/><path class="cls-2" d="M157.31,470.67c.22-73.08.64-222.24.64-222.24,4.56-.15,11.11-.26,19,0,17.65.56,26.47.84,33,4,15.59,7.52,21.65,24.25,23,28,4.13,11.41,3.69,23.83,3.6,25.68,0,.9-.09,1.68-.1,1.82a66,66,0,0,1-5,21,44.56,44.56,0,0,1-9,14,45.35,45.35,0,0,1-13,9c-7.83,3.67-14.38,4.21-25,5a159.51,159.51,0,0,1-23,0"/><line class="cls-3" x1="454.02" y1="249.49" x2="454.02" y2="471.01"/><path class="cls-3" d="M484.29,357.43h35.08c14.71.39,32.32,5.72,45.61,16a62.49,62.49,0,0,1,15.21,17c3.13,5,9.57,15.49,9.35,30-.07,5.18-.42,16.75-9.35,28a53.22,53.22,0,0,1-14,12c-15,9.05-31.29,9.92-56.13,11-6.86.29-16.48.49-28.07,0L482,471V249.49c3.19-.05,8-.11,14-.06,8.8.06,23.59.16,30.41,1,16.76,2.06,34.2,14.57,42.1,30,11.29,22,1.58,47-15.2,61-13.32,11.13-31.64,15.85-40.58,16-1,0-7.45,0-14.39,0-5.35,0-9.71,0-12.51,0"/></g></svg>